<svg width="3466" height="1120" viewBox="0 0 3466 1120" fill="none" xmlns="http://www.w3.org/2000/svg">
<path d="M1720.28 0C1686.27 93.345 1652.33 186.69 1618.33 280.035H560.998C486.774 280.035 415.513 309.528 363.02 362.021C310.527 414.515 281.034 485.705 281.034 560C281.034 634.295 310.526 705.486 363.02 758.05C415.513 810.543 486.774 840.035 560.998 840.035H1563.5C1665.39 560 1767.34 280.035 1869.22 0H2181.57L2487.29 840.035H3465.39V1120H2291.28L2214.8 910.026H1835.99L1759.58 1120H560.998C412.479 1120 270.027 1061.02 165.041 956.028C59.9843 850.971 1.00002 708.519 1 560C1 411.481 60.0547 269.029 165.041 164.042C270.098 58.9847 412.479 3.63608e-05 560.998 0H1720.28ZM548.996 413.602C567.396 413.602 583.129 415.602 596.195 419.602C609.529 423.335 620.862 428.802 630.195 436.002C639.795 443.202 647.929 451.869 654.596 462.002L612.596 502.401C606.996 495.468 600.862 489.735 594.195 485.202C587.795 480.669 580.862 477.202 573.396 474.802C566.196 472.402 558.729 471.202 550.996 471.202C542.996 471.202 536.062 472.268 530.195 474.401C524.596 476.268 520.196 479.069 516.996 482.802C513.796 486.268 512.195 490.535 512.195 495.602C512.195 500.135 513.529 504.002 516.195 507.202C518.862 510.402 522.463 513.335 526.996 516.002C531.529 518.402 536.729 520.535 542.596 522.401C548.462 524.001 554.596 525.335 560.996 526.401C575.663 529.335 588.863 533.202 600.596 538.002C612.596 542.802 622.862 548.668 631.396 555.602C640.195 562.535 646.862 570.801 651.396 580.401C656.195 589.735 658.596 600.669 658.596 613.202C658.596 632.669 653.795 649.202 644.195 662.802C634.862 676.135 621.929 686.402 605.396 693.602C589.129 700.535 570.329 704.002 548.996 704.002C530.596 704.002 513.929 701.868 498.996 697.602C484.329 693.068 471.263 686.668 459.796 678.401C448.329 669.868 438.063 659.868 428.996 648.401L470.196 601.602C483.529 619.468 496.862 631.468 510.195 637.602C523.795 643.735 537.795 646.802 552.195 646.802C559.395 646.802 565.929 645.869 571.796 644.002C577.662 642.135 582.196 639.468 585.396 636.002C588.595 632.269 590.195 627.735 590.195 622.401C590.195 618.401 589.128 614.801 586.995 611.602C585.128 608.402 582.462 605.602 578.995 603.202C575.529 600.802 571.396 598.668 566.596 596.802C561.796 594.668 556.729 592.935 551.396 591.602C546.062 590.002 540.596 588.668 534.996 587.602C519.529 584.135 506.062 579.868 494.596 574.802C483.129 569.735 473.529 563.601 465.796 556.401C458.329 548.935 452.729 540.535 448.996 531.202C445.263 521.602 443.397 510.935 443.396 499.202C443.396 486.669 446.196 475.202 451.796 464.802C457.663 454.135 465.396 445.068 474.996 437.602C484.863 429.868 496.196 424.002 508.996 420.002C521.796 415.735 535.13 413.602 548.996 413.602ZM839.71 414.401C853.043 414.401 866.11 416.135 878.91 419.602C891.71 423.068 903.576 428.269 914.51 435.202C925.71 441.869 935.31 449.869 943.31 459.202L901.71 506.802C896.11 500.935 890.11 495.868 883.71 491.602C877.577 487.068 870.777 483.602 863.311 481.202C855.844 478.802 847.844 477.602 839.311 477.602C828.644 477.602 818.51 479.602 808.91 483.602C799.577 487.335 791.31 492.802 784.11 500.002C777.177 506.935 771.711 515.468 767.711 525.602C763.711 535.735 761.711 547.068 761.711 559.602C761.711 571.868 763.711 583.069 767.711 593.202C771.711 603.069 777.311 611.602 784.511 618.802C791.711 626.002 800.378 631.469 810.511 635.202C820.911 638.935 832.377 640.802 844.91 640.802C853.443 640.802 861.577 639.602 869.311 637.202C877.044 634.802 884.11 631.601 890.51 627.602C897.176 623.335 903.044 618.535 908.11 613.202L940.91 665.201C934.244 672.668 925.31 679.335 914.11 685.201C903.177 691.068 890.91 695.735 877.311 699.201C863.977 702.401 850.51 704.002 836.91 704.002C815.844 704.002 796.377 700.535 778.511 693.602C760.911 686.402 745.577 676.402 732.511 663.602C719.444 650.535 709.31 635.202 702.11 617.602C695.177 599.735 691.711 580.135 691.711 558.802C691.711 538.002 695.445 518.802 702.911 501.202C710.378 483.602 720.644 468.402 733.711 455.602C747.044 442.535 762.644 432.402 780.511 425.202C798.644 418.002 818.377 414.401 839.71 414.401ZM1114.64 413.602C1135.71 413.602 1155.04 417.201 1172.64 424.401C1190.24 431.601 1205.58 441.735 1218.64 454.802C1231.71 467.868 1241.71 483.202 1248.64 500.802C1255.84 518.402 1259.44 537.735 1259.44 558.802C1259.44 579.602 1255.84 598.935 1248.64 616.802C1241.71 634.402 1231.71 649.735 1218.64 662.802C1205.58 675.868 1190.24 686.001 1172.64 693.201C1155.04 700.401 1135.84 704.002 1115.04 704.002C1093.71 704.002 1074.24 700.401 1056.64 693.201C1039.04 686.001 1023.71 675.868 1010.64 662.802C997.578 649.735 987.444 634.402 980.244 616.802C973.044 599.202 969.444 579.868 969.444 558.802C969.444 537.735 973.044 518.402 980.244 500.802C987.444 483.202 997.578 467.868 1010.64 454.802C1023.71 441.735 1039.04 431.601 1056.64 424.401C1074.24 417.201 1093.58 413.602 1114.64 413.602ZM3465.41 700.054H2585.37L2483.42 420.019H3465.41V700.054ZM1432.85 420.002C1450.45 420.002 1466.05 424.002 1479.65 432.002C1493.52 440.002 1504.45 450.935 1512.45 464.802C1520.72 478.668 1524.85 494.268 1524.85 511.602C1524.85 529.735 1520.72 546.001 1512.45 560.401C1504.45 574.535 1493.52 585.735 1479.65 594.002C1466.05 602.269 1450.45 606.401 1432.85 606.401H1380.05V700.002H1312.05V420.002H1432.85ZM1923.34 669.997H2127.45L2025.43 389.608L1923.34 669.997ZM1114.64 477.602C1103.71 477.602 1093.58 479.602 1084.24 483.602C1075.18 487.602 1067.18 493.335 1060.24 500.802C1053.31 508.002 1047.98 516.535 1044.24 526.401C1040.78 536.268 1039.04 547.068 1039.04 558.802C1039.04 570.535 1040.78 581.468 1044.24 591.602C1047.98 601.468 1053.31 610.002 1060.24 617.202C1067.18 624.402 1075.18 630.002 1084.24 634.002C1093.58 638.002 1103.71 640.002 1114.64 640.002C1125.58 640.002 1135.58 638.002 1144.64 634.002C1153.98 630.002 1161.98 624.402 1168.64 617.202C1175.58 609.736 1180.91 601.069 1184.64 591.202C1188.38 581.335 1190.24 570.535 1190.24 558.802C1190.24 547.068 1188.38 536.268 1184.64 526.401C1180.91 516.535 1175.58 508.002 1168.64 500.802C1161.98 493.335 1153.98 487.602 1144.64 483.602C1135.58 479.602 1125.58 477.602 1114.64 477.602ZM1378.85 546.802H1423.25C1429.12 546.802 1434.45 545.335 1439.25 542.401C1444.05 539.468 1447.92 535.468 1450.85 530.401C1453.79 525.335 1455.25 519.468 1455.25 512.802C1455.25 505.869 1453.79 500.002 1450.85 495.202C1447.92 490.402 1444.05 486.669 1439.25 484.002C1434.45 481.335 1429.12 480.002 1423.25 480.002H1378.85V546.802ZM3465.4 280.035H2432.47L2330.59 0H3465.4V280.035Z" fill="#7DC3FF"/>
</svg>
